<mxfile host="65bd71144e">
    <diagram id="t_vU_dTarcJYK7umkIUp" name="Page-1">
        <mxGraphModel dx="1266" dy="822" grid="1" gridSize="10" guides="1" tooltips="1" connect="1" arrows="1" fold="1" page="1" pageScale="1" pageWidth="1169" pageHeight="827" background="none" math="0" shadow="0">
            <root>
                <mxCell id="0"/>
                <mxCell id="1" parent="0"/>
                <mxCell id="29" style="edgeStyle=none;html=1;exitX=0.75;exitY=0;exitDx=0;exitDy=0;entryX=0.25;entryY=1;entryDx=0;entryDy=0;fontSize=11;fontColor=default;" parent="1" source="10" target="2" edge="1">
                    <mxGeometry relative="1" as="geometry">
                        <mxPoint x="497.5" y="185" as="targetPoint"/>
                    </mxGeometry>
                </mxCell>
                <mxCell id="6" value="" style="group;" parent="1" vertex="1" connectable="0">
                    <mxGeometry x="530" y="70" width="390" height="120" as="geometry"/>
                </mxCell>
                <mxCell id="2" value="&lt;font style=&quot;font-size: 11px;&quot;&gt;&lt;span style=&quot;color: rgb(166, 172, 205); font-family: Consolas, &amp;quot;Courier New&amp;quot;, monospace; text-align: left; background-color: rgb(41, 45, 62);&quot;&gt;&amp;nbsp;&lt;/span&gt;&lt;span style=&quot;font-family: Consolas, &amp;quot;Courier New&amp;quot;, monospace; text-align: left; background-color: rgb(41, 45, 62); color: rgb(199, 146, 234);&quot;&gt;const&lt;/span&gt;&lt;span style=&quot;color: rgb(166, 172, 205); font-family: Consolas, &amp;quot;Courier New&amp;quot;, monospace; text-align: left; background-color: rgb(41, 45, 62);&quot;&gt;&amp;nbsp;&lt;/span&gt;&lt;span style=&quot;font-family: Consolas, &amp;quot;Courier New&amp;quot;, monospace; text-align: left; background-color: rgb(41, 45, 62); color: rgb(137, 221, 255);&quot;&gt;[&lt;/span&gt;&lt;span style=&quot;font-family: Consolas, &amp;quot;Courier New&amp;quot;, monospace; text-align: left; background-color: rgb(41, 45, 62); color: rgb(240, 113, 120);&quot;&gt;risultatiPassati&lt;/span&gt;&lt;span style=&quot;font-family: Consolas, &amp;quot;Courier New&amp;quot;, monospace; text-align: left; background-color: rgb(41, 45, 62); color: rgb(137, 221, 255);&quot;&gt;,&lt;/span&gt;&lt;span style=&quot;color: rgb(166, 172, 205); font-family: Consolas, &amp;quot;Courier New&amp;quot;, monospace; text-align: left; background-color: rgb(41, 45, 62);&quot;&gt;&amp;nbsp;&lt;/span&gt;&lt;span style=&quot;font-family: Consolas, &amp;quot;Courier New&amp;quot;, monospace; text-align: left; background-color: rgb(41, 45, 62); color: rgb(240, 113, 120);&quot;&gt;setRisultatiPassati&lt;/span&gt;&lt;span style=&quot;font-family: Consolas, &amp;quot;Courier New&amp;quot;, monospace; text-align: left; background-color: rgb(41, 45, 62); color: rgb(137, 221, 255);&quot;&gt;]&lt;/span&gt;&lt;span style=&quot;color: rgb(166, 172, 205); font-family: Consolas, &amp;quot;Courier New&amp;quot;, monospace; text-align: left; background-color: rgb(41, 45, 62);&quot;&gt;&amp;nbsp;&lt;/span&gt;&lt;span style=&quot;font-family: Consolas, &amp;quot;Courier New&amp;quot;, monospace; text-align: left; background-color: rgb(41, 45, 62); color: rgb(199, 146, 234);&quot;&gt;=&lt;/span&gt;&lt;span style=&quot;color: rgb(166, 172, 205); font-family: Consolas, &amp;quot;Courier New&amp;quot;, monospace; text-align: left; background-color: rgb(41, 45, 62);&quot;&gt;&amp;nbsp;&lt;/span&gt;&lt;span style=&quot;font-family: Consolas, &amp;quot;Courier New&amp;quot;, monospace; text-align: left; background-color: rgb(41, 45, 62); color: rgb(130, 170, 255);&quot;&gt;useState&lt;/span&gt;&lt;span style=&quot;color: rgb(166, 172, 205); font-family: Consolas, &amp;quot;Courier New&amp;quot;, monospace; text-align: left; background-color: rgb(41, 45, 62);&quot;&gt;([])&lt;br&gt;&lt;/span&gt;&lt;/font&gt;&lt;div style=&quot;color: rgb(166, 172, 205); background-color: rgb(41, 45, 62); font-family: Consolas, &amp;quot;Courier New&amp;quot;, monospace; line-height: 22px; font-size: 11px;&quot;&gt;&lt;div style=&quot;line-height: 22px;&quot;&gt;&lt;div style=&quot;&quot;&gt;&lt;font style=&quot;font-size: 11px;&quot;&gt;&lt;span style=&quot;color: #c792ea;&quot;&gt;function&lt;/span&gt; &lt;span style=&quot;color: #82aaff;&quot;&gt;handleReset&lt;/span&gt;&lt;span style=&quot;color: #89ddff;&quot;&gt;()&lt;/span&gt; &lt;span style=&quot;color: #89ddff;&quot;&gt;{&lt;/span&gt;&lt;/font&gt;&lt;/div&gt;&lt;div style=&quot;&quot;&gt;&lt;font style=&quot;font-size: 11px;&quot;&gt;&amp;nbsp; &amp;nbsp; &lt;span style=&quot;color: #82aaff;&quot;&gt;setRisultatiPassati&lt;/span&gt;(&lt;span style=&quot;color: #f78c6c;&quot;&gt;null&lt;/span&gt;)&lt;/font&gt;&lt;/div&gt;&lt;div style=&quot;&quot;&gt;&lt;font style=&quot;font-size: 11px;&quot;&gt;&amp;nbsp; &lt;span style=&quot;color: rgb(137, 221, 255);&quot;&gt;}&lt;/span&gt;&lt;/font&gt;&lt;/div&gt;&lt;/div&gt;&lt;/div&gt;" style="rounded=0;whiteSpace=wrap;html=1;" parent="6" vertex="1">
                    <mxGeometry y="30" width="390" height="90" as="geometry"/>
                </mxCell>
                <mxCell id="3" value="App" style="text;strokeColor=none;align=center;fillColor=none;html=1;verticalAlign=middle;whiteSpace=wrap;rounded=0;" parent="6" vertex="1">
                    <mxGeometry x="175" width="40" height="30" as="geometry"/>
                </mxCell>
                <mxCell id="9" value="" style="group;fontColor=default;" parent="1" vertex="1" connectable="0">
                    <mxGeometry x="20" y="320" width="520" height="110" as="geometry"/>
                </mxCell>
                <mxCell id="10" value="&lt;div style=&quot;color: rgb(166, 172, 205); background-color: rgb(41, 45, 62); font-family: Consolas, &amp;quot;Courier New&amp;quot;, monospace; font-size: 11px; line-height: 22px;&quot;&gt;&lt;span style=&quot;color: #c792ea;&quot;&gt;function&lt;/span&gt; &lt;span style=&quot;color: #82aaff;&quot;&gt;DiceContainer&lt;/span&gt;&lt;span style=&quot;color: #89ddff;&quot;&gt;({&lt;/span&gt; &lt;span style=&quot;color: #ff5370;&quot;&gt;risultatiPassati&lt;/span&gt;&lt;span style=&quot;color: #89ddff;&quot;&gt;,&lt;/span&gt; &lt;span style=&quot;color: #ff5370;&quot;&gt;setRisultatiPassati&lt;/span&gt; &lt;span style=&quot;color: #89ddff;&quot;&gt;})&lt;/span&gt;&lt;/div&gt;" style="rounded=0;whiteSpace=wrap;html=1;" parent="9" vertex="1">
                    <mxGeometry y="70" width="420" height="40" as="geometry"/>
                </mxCell>
                <mxCell id="11" value="DiceContainer" style="text;strokeColor=none;align=center;fillColor=none;html=1;verticalAlign=middle;whiteSpace=wrap;rounded=0;" parent="9" vertex="1">
                    <mxGeometry x="159.625" y="30" width="100" height="30" as="geometry"/>
                </mxCell>
                <mxCell id="30" value="&lt;div style=&quot;color: rgb(166, 172, 205); background-color: rgb(41, 45, 62); font-family: Consolas, &amp;quot;Courier New&amp;quot;, monospace; font-weight: normal; line-height: 22px;&quot;&gt;&lt;div&gt;&lt;span style=&quot;color: #82aaff;&quot;&gt;setRisultatiPassati&lt;/span&gt;&lt;span style=&quot;color: #a6accd;&quot;&gt;(updatedResults)&lt;/span&gt;&lt;/div&gt;&lt;/div&gt;" style="text;whiteSpace=wrap;html=1;fontSize=11;fontColor=default;" parent="9" vertex="1">
                    <mxGeometry x="280" width="240" height="40" as="geometry"/>
                </mxCell>
                <mxCell id="12" value="" style="group;" parent="1" vertex="1" connectable="0">
                    <mxGeometry x="500" y="405" width="280" height="80" as="geometry"/>
                </mxCell>
                <mxCell id="13" value="&lt;div style=&quot;color: rgb(166, 172, 205); background-color: rgb(41, 45, 62); font-family: Consolas, &amp;quot;Courier New&amp;quot;, monospace; line-height: 22px; font-size: 11px;&quot;&gt;&lt;span style=&quot;color: #c792ea;&quot;&gt;function&lt;/span&gt; &lt;span style=&quot;color: #82aaff;&quot;&gt;BoxRisultati&lt;/span&gt;&lt;span style=&quot;color: #89ddff;&quot;&gt;({&lt;/span&gt; &lt;span style=&quot;color: #ff5370;&quot;&gt;risultatiPassati&lt;/span&gt; &lt;span style=&quot;color: #89ddff;&quot;&gt;})&lt;/span&gt;&lt;/div&gt;" style="rounded=0;whiteSpace=wrap;html=1;" parent="12" vertex="1">
                    <mxGeometry y="40" width="280" height="40" as="geometry"/>
                </mxCell>
                <mxCell id="14" value="BoxRisultati" style="text;strokeColor=none;align=center;fillColor=none;html=1;verticalAlign=middle;whiteSpace=wrap;rounded=0;" parent="12" vertex="1">
                    <mxGeometry x="95" width="90" height="30" as="geometry"/>
                </mxCell>
                <mxCell id="15" value="" style="group;" parent="1" vertex="1" connectable="0">
                    <mxGeometry x="504" y="585" width="300" height="80" as="geometry"/>
                </mxCell>
                <mxCell id="16" value="&lt;div style=&quot;color: rgb(166, 172, 205); background-color: rgb(41, 45, 62); font-family: Consolas, &amp;quot;Courier New&amp;quot;, monospace; line-height: 22px; font-size: 11px;&quot;&gt;&lt;span style=&quot;color: #c792ea;&quot;&gt;function&lt;/span&gt; &lt;span style=&quot;color: #82aaff;&quot;&gt;DiceHistory&lt;/span&gt;&lt;span style=&quot;color: #89ddff;&quot;&gt;({&lt;/span&gt; &lt;span style=&quot;color: #ff5370;&quot;&gt;diceType&lt;/span&gt;&lt;span style=&quot;color: #89ddff;&quot;&gt;,&lt;/span&gt; &lt;span style=&quot;color: #ff5370;&quot;&gt;pastRolls&lt;/span&gt; &lt;span style=&quot;color: #89ddff;&quot;&gt;})&lt;/span&gt;&lt;/div&gt;" style="rounded=0;whiteSpace=wrap;html=1;" parent="15" vertex="1">
                    <mxGeometry y="40" width="300" height="40" as="geometry"/>
                </mxCell>
                <mxCell id="17" value="DiceHistory" style="text;strokeColor=none;align=center;fillColor=none;html=1;verticalAlign=middle;whiteSpace=wrap;rounded=0;" parent="15" vertex="1">
                    <mxGeometry x="109.875" width="80" height="30" as="geometry"/>
                </mxCell>
                <mxCell id="32" style="edgeStyle=none;html=1;exitX=1;exitY=0;exitDx=0;exitDy=0;fontSize=11;fontColor=default;" parent="1" source="18" edge="1">
                    <mxGeometry relative="1" as="geometry">
                        <mxPoint x="315" y="450" as="targetPoint"/>
                    </mxGeometry>
                </mxCell>
                <mxCell id="18" value="&lt;div style=&quot;color: rgb(166, 172, 205); background-color: rgb(41, 45, 62); font-family: Consolas, &amp;quot;Courier New&amp;quot;, monospace; line-height: 22px; font-size: 11px;&quot;&gt;&lt;span style=&quot;color: #c792ea;&quot;&gt;function&lt;/span&gt; &lt;span style=&quot;color: #82aaff;&quot;&gt;Dice&lt;/span&gt;&lt;span style=&quot;color: #89ddff;&quot;&gt;({&lt;/span&gt; &lt;span style=&quot;color: #ff5370;&quot;&gt;tipoDado&lt;/span&gt;&lt;span style=&quot;color: #89ddff;&quot;&gt;,&lt;/span&gt; &lt;span style=&quot;color: #ff5370;&quot;&gt;onDiceRoll&lt;/span&gt;&lt;span style=&quot;color: #89ddff;&quot;&gt;,&lt;/span&gt; &lt;span style=&quot;color: #ff5370;&quot;&gt;clearDice&lt;/span&gt; &lt;span style=&quot;color: #89ddff;&quot;&gt;})&lt;/span&gt;&lt;/div&gt;" style="rounded=0;whiteSpace=wrap;html=1;" parent="1" vertex="1">
                    <mxGeometry x="45" y="630" width="330" height="40" as="geometry"/>
                </mxCell>
                <mxCell id="19" value="Dice" style="text;strokeColor=none;align=center;fillColor=none;html=1;verticalAlign=middle;whiteSpace=wrap;rounded=0;" parent="1" vertex="1">
                    <mxGeometry x="190" y="590" width="50" height="30" as="geometry"/>
                </mxCell>
                <mxCell id="20" value="" style="edgeStyle=none;html=1;" parent="1" source="10" target="19" edge="1">
                    <mxGeometry relative="1" as="geometry"/>
                </mxCell>
                <mxCell id="21" style="edgeStyle=none;html=1;exitX=0.5;exitY=1;exitDx=0;exitDy=0;entryX=0.5;entryY=0;entryDx=0;entryDy=0;" parent="1" source="13" target="17" edge="1">
                    <mxGeometry relative="1" as="geometry"/>
                </mxCell>
                <mxCell id="24" value="" style="edgeStyle=none;html=1;entryX=0.5;entryY=0;entryDx=0;entryDy=0;exitX=0.75;exitY=1;exitDx=0;exitDy=0;" parent="1" source="2" target="14" edge="1">
                    <mxGeometry relative="1" as="geometry">
                        <mxPoint x="930" y="160.5" as="sourcePoint"/>
                        <mxPoint x="715" y="225" as="targetPoint"/>
                    </mxGeometry>
                </mxCell>
                <mxCell id="31" value="&lt;div style=&quot;color: rgb(166, 172, 205); background-color: rgb(41, 45, 62); font-family: Consolas, &amp;quot;Courier New&amp;quot;, monospace; font-weight: normal; line-height: 22px;&quot;&gt;&lt;div style=&quot;&quot;&gt;&lt;div style=&quot;line-height: 22px;&quot;&gt;&lt;span style=&quot;color: #c792ea;font-style: italic;&quot;&gt;onDiceRoll&lt;/span&gt;&lt;span style=&quot;color: #c792ea;&quot;&gt;=&lt;/span&gt;&lt;span style=&quot;color: #89ddff;&quot;&gt;{&lt;/span&gt;handleDiceRoll&lt;span style=&quot;color: #89ddff;&quot;&gt;}&lt;/span&gt;&lt;/div&gt;&lt;/div&gt;&lt;div&gt;&lt;span style=&quot;color: #c792ea;font-style: italic;&quot;&gt;risultatiPassati&lt;/span&gt;&lt;span style=&quot;color: #c792ea;&quot;&gt;=&lt;/span&gt;&lt;span style=&quot;color: #89ddff;&quot;&gt;{&lt;/span&gt;&lt;span style=&quot;color: #a6accd;&quot;&gt;risultatiPassati&lt;/span&gt;&lt;span style=&quot;color: #89ddff;&quot;&gt;}&lt;/span&gt;&lt;/div&gt;&lt;/div&gt;" style="text;whiteSpace=wrap;html=1;fontSize=11;fontColor=default;" parent="1" vertex="1">
                    <mxGeometry x="45" y="460" width="240" height="60" as="geometry"/>
                </mxCell>
                <mxCell id="33" value="&lt;div style=&quot;color: rgb(166, 172, 205); background-color: rgb(41, 45, 62); font-family: Consolas, &amp;quot;Courier New&amp;quot;, monospace; font-weight: normal; line-height: 22px;&quot;&gt;&lt;div&gt;&lt;span style=&quot;color: #82aaff;&quot;&gt;onDiceRoll&lt;/span&gt;&lt;span style=&quot;color: #a6accd;&quot;&gt;([tipoDado&lt;/span&gt;&lt;span style=&quot;color: #89ddff;&quot;&gt;,&lt;/span&gt;&lt;span style=&quot;color: #a6accd;&quot;&gt; newValue])&lt;/span&gt;&lt;/div&gt;&lt;/div&gt;" style="text;whiteSpace=wrap;html=1;fontSize=11;fontColor=default;" parent="1" vertex="1">
                    <mxGeometry x="265" y="560" width="220" height="40" as="geometry"/>
                </mxCell>
                <mxCell id="34" value="&lt;div style=&quot;color: rgb(166, 172, 205); background-color: rgb(41, 45, 62); font-family: Consolas, &amp;quot;Courier New&amp;quot;, monospace; font-weight: normal; line-height: 22px;&quot;&gt;&lt;div&gt;&lt;span style=&quot;color: #c792ea;font-style: italic;&quot;&gt;risultatiPassati&lt;/span&gt;&lt;span style=&quot;color: #c792ea;&quot;&gt;=&lt;/span&gt;&lt;span style=&quot;color: #89ddff;&quot;&gt;{&lt;/span&gt;&lt;span style=&quot;color: #a6accd;&quot;&gt;risultatiPassati&lt;/span&gt;&lt;span style=&quot;color: #89ddff;&quot;&gt;}&lt;/span&gt;&lt;/div&gt;&lt;/div&gt;" style="text;whiteSpace=wrap;html=1;fontSize=11;fontColor=default;" parent="1" vertex="1">
                    <mxGeometry x="650" y="200" width="240" height="40" as="geometry"/>
                </mxCell>
                <mxCell id="37" value="&lt;div style=&quot;color: rgb(166, 172, 205); background-color: rgb(41, 45, 62); font-family: Consolas, &amp;quot;Courier New&amp;quot;, monospace; font-weight: normal; line-height: 22px;&quot;&gt;&lt;div&gt;&lt;span style=&quot;color: #c792ea;font-style: italic;&quot;&gt;pastRolls&lt;/span&gt;&lt;span style=&quot;color: #c792ea;&quot;&gt;=&lt;/span&gt;&lt;span style=&quot;color: #89ddff;&quot;&gt;{&lt;/span&gt;&lt;span style=&quot;color: #a6accd;&quot;&gt;risultatiDaMostrare&lt;/span&gt;&lt;span style=&quot;color: #89ddff;&quot;&gt;?.&lt;/span&gt;&lt;span style=&quot;color: #a6accd;&quot;&gt;[&lt;/span&gt;&lt;span style=&quot;color: #f78c6c;&quot;&gt;4&lt;/span&gt;&lt;span style=&quot;color: #a6accd;&quot;&gt;]&lt;/span&gt;&lt;span style=&quot;color: #89ddff;&quot;&gt;}&lt;/span&gt;&lt;/div&gt;&lt;/div&gt;" style="text;whiteSpace=wrap;html=1;fontSize=11;fontColor=default;" parent="1" vertex="1">
                    <mxGeometry x="515" y="515" width="240" height="40" as="geometry"/>
                </mxCell>
                <mxCell id="40" value="&lt;font style=&quot;font-size: 20px;&quot;&gt;DATA&lt;br&gt;PARENT &lt;br&gt;TO&lt;br&gt;CHILD&lt;/font&gt;" style="text;strokeColor=none;align=center;fillColor=none;html=1;verticalAlign=middle;whiteSpace=wrap;rounded=0;fontSize=11;fontColor=default;" parent="1" vertex="1">
                    <mxGeometry x="604" y="240" width="100" height="110" as="geometry"/>
                </mxCell>
                <mxCell id="41" value="&lt;font style=&quot;font-size: 20px;&quot;&gt;DATA&amp;nbsp;&lt;br&gt;CHILD&lt;br&gt;TO&lt;br&gt;PARENT&lt;/font&gt;" style="text;strokeColor=none;align=center;fillColor=none;html=1;verticalAlign=middle;whiteSpace=wrap;rounded=0;fontSize=11;fontColor=default;" parent="1" vertex="1">
                    <mxGeometry x="320" y="105" width="100" height="110" as="geometry"/>
                </mxCell>
                <mxCell id="45" value="" style="edgeStyle=none;html=1;fontSize=20;fontColor=default;entryX=0.5;entryY=0;entryDx=0;entryDy=0;exitX=0;exitY=1;exitDx=0;exitDy=0;" parent="1" source="2" target="11" edge="1">
                    <mxGeometry relative="1" as="geometry">
                        <mxPoint x="399.9999999999998" y="185" as="sourcePoint"/>
                    </mxGeometry>
                </mxCell>
                <mxCell id="27" value="&lt;div style=&quot;color: rgb(166, 172, 205); background-color: rgb(41, 45, 62); font-family: Consolas, &amp;quot;Courier New&amp;quot;, monospace; font-weight: normal; line-height: 22px;&quot;&gt;&lt;div&gt;&lt;span style=&quot;color: #c792ea;font-style: italic;&quot;&gt;setRisultatiPassati&lt;/span&gt;&lt;span style=&quot;color: #c792ea;&quot;&gt;=&lt;/span&gt;&lt;span style=&quot;color: #89ddff;&quot;&gt;{&lt;/span&gt;&lt;span style=&quot;color: #a6accd;&quot;&gt;setRisultatiPassati&lt;/span&gt;&lt;span style=&quot;color: #89ddff;&quot;&gt;}&lt;/span&gt;&lt;/div&gt;&lt;/div&gt;" style="text;whiteSpace=wrap;html=1;fontSize=11;" parent="1" vertex="1">
                    <mxGeometry x="180" y="225" width="270" height="40" as="geometry"/>
                </mxCell>
                <mxCell id="46" value="&lt;font style=&quot;font-size: 11px;&quot;&gt;In questo esempio passo al child direttamente il set state del padre, in teoria sarebbe meglio passare un'altra funzione, che nel padre aggiorna lo stato, indirettamente, evitando di passare direttamente il set state&amp;nbsp;&lt;/font&gt;" style="text;strokeColor=none;align=center;fillColor=none;html=1;verticalAlign=middle;whiteSpace=wrap;rounded=0;fontSize=20;fontColor=default;" parent="1" vertex="1">
                    <mxGeometry x="133" y="705" width="371" height="40" as="geometry"/>
                </mxCell>
                <mxCell id="u9xYi5s5-aRbP2fGgqoD-46" value="" style="group;" parent="1" vertex="1" connectable="0">
                    <mxGeometry x="860" y="350" width="240" height="80" as="geometry"/>
                </mxCell>
                <mxCell id="u9xYi5s5-aRbP2fGgqoD-47" value="&lt;div style=&quot;color: rgb(166, 172, 205); background-color: rgb(41, 45, 62); font-family: Consolas, &amp;quot;Courier New&amp;quot;, monospace; line-height: 22px; font-size: 11px;&quot;&gt;&lt;div style=&quot;line-height: 22px;&quot;&gt;&lt;span style=&quot;color: #c792ea;&quot;&gt;function&lt;/span&gt; &lt;span style=&quot;color: #82aaff;&quot;&gt;Button&lt;/span&gt;&lt;span style=&quot;color: #89ddff;&quot;&gt;({&lt;/span&gt; &lt;span style=&quot;color: #ff5370;&quot;&gt;children&lt;/span&gt;&lt;span style=&quot;color: #89ddff;&quot;&gt;,&lt;/span&gt; &lt;span style=&quot;color: #ff5370;&quot;&gt;onButtonClick&lt;/span&gt; &lt;span style=&quot;color: #89ddff;&quot;&gt;})&lt;/span&gt;&lt;/div&gt;&lt;/div&gt;" style="rounded=0;whiteSpace=wrap;html=1;" parent="u9xYi5s5-aRbP2fGgqoD-46" vertex="1">
                    <mxGeometry x="-50" y="40" width="290" height="40" as="geometry"/>
                </mxCell>
                <mxCell id="u9xYi5s5-aRbP2fGgqoD-48" value="Button" style="text;strokeColor=none;align=center;fillColor=none;html=1;verticalAlign=middle;whiteSpace=wrap;rounded=0;" parent="u9xYi5s5-aRbP2fGgqoD-46" vertex="1">
                    <mxGeometry x="65" width="60" height="30" as="geometry"/>
                </mxCell>
                <mxCell id="u9xYi5s5-aRbP2fGgqoD-53" style="edgeStyle=none;html=1;exitX=1;exitY=0.5;exitDx=0;exitDy=0;entryX=0.5;entryY=0;entryDx=0;entryDy=0;fontSize=11;fontColor=default;" parent="1" source="2" target="u9xYi5s5-aRbP2fGgqoD-48" edge="1">
                    <mxGeometry relative="1" as="geometry"/>
                </mxCell>
                <mxCell id="u9xYi5s5-aRbP2fGgqoD-55" value="&lt;div style=&quot;color: rgb(166, 172, 205); background-color: rgb(41, 45, 62); font-family: Consolas, &amp;quot;Courier New&amp;quot;, monospace; font-weight: normal; line-height: 22px;&quot;&gt;&lt;div&gt;&lt;span style=&quot;color: #c792ea;font-style: italic;&quot;&gt;onButtonClick&lt;/span&gt;&lt;span style=&quot;color: #c792ea;&quot;&gt;=&lt;/span&gt;&lt;span style=&quot;color: #89ddff;&quot;&gt;{&lt;/span&gt;&lt;span style=&quot;color: #a6accd;&quot;&gt;handleReset&lt;/span&gt;&lt;span style=&quot;color: #89ddff;&quot;&gt;}&lt;/span&gt;&lt;/div&gt;&lt;/div&gt;" style="text;whiteSpace=wrap;html=1;fontSize=11;fontColor=default;" parent="1" vertex="1">
                    <mxGeometry x="910" y="205" width="190" height="40" as="geometry"/>
                </mxCell>
                <mxCell id="u9xYi5s5-aRbP2fGgqoD-56" style="edgeStyle=none;html=1;exitX=0.25;exitY=0;exitDx=0;exitDy=0;entryX=0.897;entryY=1.056;entryDx=0;entryDy=0;fontSize=11;fontColor=default;entryPerimeter=0;" parent="1" source="u9xYi5s5-aRbP2fGgqoD-47" target="2" edge="1">
                    <mxGeometry relative="1" as="geometry"/>
                </mxCell>
                <mxCell id="u9xYi5s5-aRbP2fGgqoD-57" value="&lt;div style=&quot;color: rgb(166, 172, 205); background-color: rgb(41, 45, 62); font-family: Consolas, &amp;quot;Courier New&amp;quot;, monospace; font-weight: normal; line-height: 22px;&quot;&gt;&lt;div&gt;&lt;span style=&quot;color: #c792ea;font-style: italic;&quot;&gt;onClick&lt;/span&gt;&lt;span style=&quot;color: #c792ea;&quot;&gt;=&lt;/span&gt;&lt;span style=&quot;color: #89ddff;&quot;&gt;{&lt;/span&gt;&lt;span style=&quot;color: #a6accd;&quot;&gt;onButtonClick&lt;/span&gt;&lt;span style=&quot;color: #89ddff;&quot;&gt;}&lt;/span&gt;&lt;/div&gt;&lt;/div&gt;" style="text;whiteSpace=wrap;html=1;fontSize=11;fontColor=default;" parent="1" vertex="1">
                    <mxGeometry x="780" y="320" width="160" height="40" as="geometry"/>
                </mxCell>
                <mxCell id="u9xYi5s5-aRbP2fGgqoD-58" value="&lt;font style=&quot;font-size: 20px;&quot;&gt;EVENT&lt;br&gt;CHILD&lt;br&gt;TO&lt;br&gt;PARENT&lt;br&gt;&lt;/font&gt;" style="text;strokeColor=none;align=center;fillColor=none;html=1;verticalAlign=middle;whiteSpace=wrap;rounded=0;fontSize=11;fontColor=default;" parent="1" vertex="1">
                    <mxGeometry x="1010" y="250" width="100" height="110" as="geometry"/>
                </mxCell>
            </root>
        </mxGraphModel>
    </diagram>
    <diagram id="gk5Y9Cm2RMO_nq63VlzD" name="Page-2">
        <mxGraphModel dx="923" dy="820" grid="1" gridSize="10" guides="1" tooltips="1" connect="1" arrows="1" fold="1" page="1" pageScale="1" pageWidth="1169" pageHeight="827" math="0" shadow="0">
            <root>
                <mxCell id="0"/>
                <mxCell id="1" parent="0"/>
            </root>
        </mxGraphModel>
    </diagram>
</mxfile>